<svg width="41" height="40" viewBox="0 0 41 40" fill="none" xmlns="http://www.w3.org/2000/svg"><g clip-path="url(#clip0_1_76)"><mask id="mask0_1_76" style="mask-type:luminance" maskUnits="userSpaceOnUse" x="0" y="0" width="41" height="40"><path d="M0 -1.43051e-06H41V40H0V-1.43051e-06Z" fill="#fff"/></mask><g mask="url(#mask0_1_76)"><path d="M39.7971 13.5094C39.7971 7.77259 35.0303 3.12206 29.1511 3.12206C25.5819 3.12206 22.4325 4.84101 20.5001 7.46838C18.5688 4.84101 15.4183 3.12206 11.8502 3.12206C5.96991 3.12206 1.20312 7.77259 1.20312 13.5094C1.20312 14.3221 1.30886 15.1094 1.49013 15.8684C2.96936 24.8284 13.1805 34.2831 20.5001 36.8789C27.8186 34.2831 38.0319 24.8284 39.5079 15.8684C39.6913 15.1094 39.7971 14.3221 39.7971 13.5094Z" fill="url(#paint0_linear_1_76)"/></g></g><defs><linearGradient id="paint0_linear_1_76" x1="20.5" y1="36.879" x2="20.5" y2="3.122" gradientUnits="userSpaceOnUse"><stop stop-color="#FF6A45" stop-opacity=".46"/><stop offset="1" stop-color="#FF6A45"/></linearGradient><clipPath id="clip0_1_76"><path fill="#fff" d="M0 0H41V40H0z"/></clipPath></defs></svg>