<svg width="54" height="54" viewBox="0 0 54 54" fill="none" xmlns="http://www.w3.org/2000/svg"><path d="M35.6257 33.137C35.832 33.5833 35.964 34.0726 35.9937 34.6008C36.0411 35.4341 35.8557 36.2706 35.4775 37.006C38.5445 36.0096 41.5419 34.5474 44.4799 33.1161C44.8893 32.9174 45.3489 32.6922 45.8562 32.5096C45.9911 32.1732 46.04 31.8112 45.9216 31.4716C45.6989 30.825 44.9812 30.4557 44.2989 30.4276C43.6153 30.4023 42.9538 30.6471 42.3132 30.8888C40.1242 31.7177 37.8934 32.5469 35.6257 33.137Z" fill="url(#paint0_linear_1_56)"/><path d="M49.7375 34.9699C49.3907 34.2001 48.4667 33.828 47.6227 33.8725C46.7789 33.9155 45.9927 34.292 45.2334 34.6629C40.1969 37.117 34.9985 39.6485 29.4029 39.9496C27.8159 40.0355 25.9399 39.7746 25.1701 38.3837C26.5701 38.0959 28.0175 38.2738 29.4472 38.2472C30.8771 38.2204 32.4016 37.9402 33.4206 36.9392C34.4425 35.9368 34.6485 34.034 33.5214 33.1532C32.7308 32.5332 31.6201 32.603 30.619 32.686C29.606 32.7707 28.5813 32.8389 27.5711 32.7009C26.4617 32.548 25.4013 32.1493 24.3232 31.8379C20.6956 30.7894 16.8602 30.7285 13.0841 30.8725V30.0983C13.0841 28.8733 12.0907 27.8813 10.8654 27.8813H6.15967C4.93467 27.8813 3.94092 28.8733 3.94092 30.0983V42.6264C3.94092 43.8511 4.93467 44.8449 6.15967 44.8449H10.8654C12.0907 44.8449 13.0841 43.8511 13.0841 42.6264V41.9116C19.1709 45.0998 26.2261 46.9582 32.9341 45.5048C36.7782 44.6728 40.3141 42.8043 43.7102 40.8215C44.9961 40.0712 46.2685 39.3017 47.5425 38.5319C48.1982 38.1345 48.8701 37.7251 49.343 37.1215C49.8146 36.5181 50.0534 35.6699 49.7375 34.9699Z" fill="url(#paint1_linear_1_56)"/><mask id="mask0_1_56" style="mask-type:luminance" maskUnits="userSpaceOnUse" x="18" y="7" width="26" height="25"><path d="M18 7.05322H43.8V31.2001H18V7.05322Z" fill="#fff"/></mask><g mask="url(#mask0_1_56)"><path d="M30.5728 20.6638C29.0926 20.0425 27.7223 19.2164 27.7223 17.3672C27.7223 15.856 28.6626 14.6831 30.1397 14.3154V12.518H31.8009V14.2042C32.5246 14.2709 33.152 14.4784 33.7199 14.8313L33.9632 14.9841L33.3238 16.7888L32.9858 16.5828C32.7218 16.4227 32.1093 16.0459 31.1304 16.0459C30.1264 16.0459 29.766 16.6243 29.766 17.161C29.766 17.8076 30.1666 18.1756 31.5457 18.7878C33.4322 19.6125 34.2376 20.6474 34.2376 22.2537C34.2376 23.818 33.2306 25.0771 31.7043 25.4641V27.3105H30.0301V25.5636C29.1535 25.4894 28.2754 25.187 27.715 24.7584L27.5132 24.6011L28.1241 22.7667L28.4817 23.0216C29.0837 23.4519 29.8564 23.6995 30.6041 23.6995C31.5429 23.6995 32.1746 23.1672 32.1746 22.3782C32.1746 21.656 31.7103 21.1591 30.5728 20.6638ZM24.9311 29.7396C25.2337 29.8271 25.5288 29.919 25.815 30.0081C26.5431 30.2334 27.2285 30.4485 27.8692 30.536C28.6551 30.6443 29.5317 30.5849 30.4363 30.5091C31.4478 30.4248 33.0822 30.2883 34.497 31.1722L35.0741 31.0224C36.4371 30.668 37.8103 30.2141 39.2001 29.7144C41.9764 27.3534 43.7413 23.836 43.7413 19.9149C43.7413 12.8203 37.9676 7.05029 30.8738 7.05029C23.7817 7.05029 18.0095 12.8203 18.0095 19.9149C18.0095 23.486 19.4733 26.7232 21.833 29.056C22.8681 29.2206 23.9064 29.443 24.9311 29.7396Z" fill="url(#paint2_linear_1_56)"/></g><defs><linearGradient id="paint0_linear_1_56" x1="40.996" y1="38.288" x2="40.885" y2="25.895" gradientUnits="userSpaceOnUse"><stop stop-color="#FF6A45" stop-opacity=".4"/><stop offset=".708" stop-color="#FF6A45"/></linearGradient><linearGradient id="paint1_linear_1_56" x1="28.059" y1="49.537" x2="27.866" y2="15.4" gradientUnits="userSpaceOnUse"><stop stop-color="#FF6A45" stop-opacity=".4"/><stop offset=".708" stop-color="#FF6A45"/></linearGradient><linearGradient id="paint2_linear_1_56" x1="31.519" y1="35.871" x2="30.909" y2="-9.554" gradientUnits="userSpaceOnUse"><stop stop-color="#FF6A45" stop-opacity=".4"/><stop offset=".708" stop-color="#FF6A45"/></linearGradient></defs></svg>