<svg width="54" height="54" viewBox="0 0 54 54" fill="none" xmlns="http://www.w3.org/2000/svg"><mask id="mask0_1_67" style="mask-type:luminance" maskUnits="userSpaceOnUse" x="4" y="4" width="46" height="46"><path d="M4.34399 4.09326H49.644V49.9292H4.34399V4.09326Z" fill="#fff"/></mask><g mask="url(#mask0_1_67)"><path fill-rule="evenodd" clip-rule="evenodd" d="M23.6084 45.4289C23.8977 45.412 24.1662 45.5138 24.3669 45.6925C24.4169 45.737 24.4628 45.7865 24.5039 45.8401C24.6266 46.0008 24.7042 46.1984 24.7169 46.4154L24.8307 48.3615C24.8649 48.9401 24.4232 49.4367 23.8451 49.4706L16.2005 49.9188C15.6222 49.9526 15.1258 49.5109 15.0919 48.9323L14.9779 46.9862C14.9443 46.4076 15.3854 45.9109 15.9638 45.8771L23.6084 45.4289ZM30.387 45.4289L38.0315 45.8774C38.6099 45.9112 39.0513 46.4078 39.0175 46.9865L38.9034 48.9326C38.8695 49.5112 38.3732 49.9529 37.7948 49.919L30.1503 49.4706C29.5722 49.4367 29.1307 48.9401 29.1646 48.3615L29.2784 46.4156C29.2912 46.1984 29.369 46.0008 29.4917 45.8401C29.5326 45.7865 29.5784 45.7372 29.6287 45.6925C29.8292 45.5141 30.0979 45.412 30.387 45.4289ZM6.15028 19C6.94741 19.0383 7.63465 19.632 7.76174 20.4518L7.94012 21.6026L7.95236 21.8323L8.81616 27.1224C8.06382 27.4849 7.65731 27.9625 7.41148 28.5797C6.96122 29.7414 8.32606 30.6354 8.57866 31.1539C8.83127 31.6727 8.76408 31.5445 8.9271 31.6904L12.2875 35.9953C12.4748 36.2682 12.7201 36.6596 13.0591 36.4537C13.3979 36.2451 13.5219 35.8526 13.3347 35.5792L9.83569 31.3005C9.812 31.2675 9.69845 31.1958 9.51694 31.0133C9.33543 30.8307 8.99038 30.569 8.74689 30.2052C8.5034 29.8414 7.8995 29.236 8.05627 28.8313C8.20549 28.4555 8.80106 27.9964 9.78491 27.862C10.3203 27.7307 12.387 28.3789 13.9896 29.4367C15.5925 30.4945 17.9076 33.0886 19.4013 34.2094C20.6203 35.1261 21.5979 35.8607 22.3089 36.7586C22.3977 36.8706 22.4826 36.9857 22.563 37.1034C23.1266 37.9297 23.4836 38.9136 23.6177 40.2865L24.0206 44.3823L15.1518 44.8542L14.1761 42.2104C13.9242 41.0122 12.3568 39.743 10.5427 38.2732C8.40913 36.544 5.99116 34.5839 5.57033 32.6617L4.49116 21.7511L4.37137 20.9784C4.22606 20.0414 4.86721 19.1641 5.8034 19.0188C5.92033 19.0005 6.03648 18.9945 6.15028 19ZM47.8456 19.0005C47.9594 18.9951 48.0755 19.0008 48.1925 19.019C49.1287 19.1643 49.7698 20.0419 49.6245 20.9787L49.5047 21.7516L48.4255 32.662C48.0044 34.5841 45.5865 36.5443 43.4529 38.2734C41.6388 39.7432 40.0714 41.0125 39.8193 42.2104L38.8435 44.8544L29.9748 44.3823L30.3779 40.2865C30.5117 38.9136 30.8688 37.9297 31.4326 37.1037C31.513 36.9857 31.5977 36.8708 31.6865 36.7586C32.3977 35.8609 33.3753 35.1261 34.5943 34.2096C36.088 33.0888 38.4034 30.4948 40.006 29.437C41.6089 28.3792 43.6753 27.731 44.2107 27.8623C45.1945 27.9969 45.7904 28.4557 45.9393 28.8315C46.0964 29.2362 45.4922 29.8419 45.2487 30.2055C45.0055 30.5693 44.6602 30.831 44.4789 31.0136C44.2974 31.1961 44.1836 31.2677 44.1599 31.3008L40.661 35.5794C40.4737 35.8529 40.5977 36.2453 40.9365 36.4539C41.2755 36.6599 41.5208 36.2682 41.7078 35.9958L45.0685 31.6909C45.2315 31.5448 45.1646 31.6729 45.4172 31.1544C45.6698 30.636 47.0344 29.7417 46.5841 28.58C46.3386 27.9628 45.9318 27.4854 45.1797 27.1227L46.0435 21.8328L46.0557 21.6031L46.2341 20.4521C46.3615 19.6323 47.0485 19.0386 47.8456 19.0005ZM26.0813 11.9503C25.8091 11.9503 25.5886 12.1711 25.5886 12.4435V15.6292H22.405C22.1328 15.6292 21.9123 15.85 21.9123 16.1224V18.0945C21.9123 18.3669 22.1328 18.5875 22.405 18.5875H25.5886V21.7735C25.5883 22.0458 25.8091 22.2664 26.081 22.2664L28.0518 22.2667C28.324 22.2667 28.5445 22.0458 28.5445 21.7735V18.5878L31.7281 18.5875C32.0003 18.5875 32.2208 18.3669 32.2208 18.0945V16.1224C32.2208 15.85 32.0003 15.6294 31.7281 15.6294H28.5445V12.4432C28.5445 12.1711 28.324 11.9503 28.0518 11.9503H26.0813ZM33.5641 4.10236C33.8336 4.09194 34.1099 4.09611 34.3932 4.11668C38.9253 4.44715 42.1761 7.63725 41.5146 13.1971C40.5451 21.3508 27.9227 30.1201 27.0667 30.1201C26.2094 30.1201 13.5878 21.3505 12.6185 13.1966C11.9573 7.63699 15.2081 4.44689 19.7406 4.11668C20.0237 4.09585 20.3003 4.09168 20.5698 4.10236C24.6107 4.26017 27.0669 7.70027 27.0669 7.70027C27.0669 7.70027 29.5227 4.26043 33.5641 4.10236Z" fill="url(#paint0_linear_1_67)"/></g><defs><linearGradient id="paint0_linear_1_67" x1="28.13" y1="58.848" x2="26.879" y2="-27.443" gradientUnits="userSpaceOnUse"><stop stop-color="#FF6A45" stop-opacity=".4"/><stop offset=".651" stop-color="#FF6A45"/></linearGradient></defs></svg>