<svg width="58" height="58" viewBox="0 0 58 58" fill="none" xmlns="http://www.w3.org/2000/svg"><mask id="mask0_1_37" style="mask-type:luminance" maskUnits="userSpaceOnUse" x="6" y="36" width="14" height="21"><path d="M6.87402 36.5903H19.2617V56.3108H6.87402V36.5903Z" fill="#fff"/></mask><g mask="url(#mask0_1_37)"><path d="M18.6724 51.474L12.6995 37.635C12.6819 37.5857 12.6617 37.5376 12.6394 37.4904C12.6167 37.4434 12.5918 37.3975 12.5644 37.353C12.5373 37.3086 12.5076 37.2655 12.4757 37.2241C12.4439 37.1827 12.41 37.143 12.3739 37.1052C12.3381 37.0672 12.3001 37.0314 12.2604 36.9975C12.2206 36.9637 12.1792 36.9318 12.1362 36.9024C12.0931 36.8728 12.0486 36.8456 12.0028 36.8207C11.9569 36.7959 11.9099 36.7732 11.8615 36.7533C11.8134 36.7335 11.7642 36.7161 11.7141 36.7013C11.664 36.6865 11.6134 36.6742 11.5619 36.6647C11.5107 36.6552 11.459 36.6484 11.407 36.6443C11.355 36.6401 11.3026 36.6389 11.2506 36.6401C11.1983 36.6415 11.1463 36.6456 11.0945 36.6524C11.0428 36.6594 10.9916 36.6689 10.9407 36.6809C10.8901 36.6932 10.84 36.708 10.7908 36.7254C10.7416 36.7427 10.6934 36.7626 10.6462 36.7852L10.077 37.0747L11.1874 39.3157C11.2131 39.3708 11.233 39.4276 11.2475 39.4866C11.2621 39.5456 11.2708 39.6052 11.2736 39.6659C11.2764 39.7266 11.2736 39.7868 11.2646 39.8469C11.2557 39.9068 11.2411 39.9655 11.221 40.0225C11.2006 40.0799 11.1751 40.1344 11.1443 40.1867C11.1133 40.239 11.0778 40.2877 11.0375 40.333C10.9969 40.3783 10.9527 40.4192 10.9043 40.4558C10.856 40.4925 10.8045 40.5241 10.7502 40.5506C10.6957 40.5775 10.6392 40.5985 10.5804 40.6141C10.522 40.6298 10.4624 40.6396 10.402 40.6438C10.3416 40.6477 10.2812 40.646 10.221 40.6382C10.1609 40.6306 10.1021 40.6172 10.0445 40.5979C9.98691 40.5789 9.9318 40.5543 9.87894 40.5246C9.82636 40.4947 9.77685 40.46 9.7307 40.4206C9.68482 40.3809 9.64287 40.3375 9.60539 40.2897C9.56791 40.2421 9.53518 40.1915 9.50749 40.1375L8.41579 37.915L7.84631 38.2045C7.79596 38.2338 7.74729 38.2654 7.69974 38.299C7.65247 38.3328 7.6066 38.3686 7.56241 38.4067C7.51849 38.4447 7.47626 38.4847 7.4357 38.5267C7.39514 38.5684 7.35682 38.612 7.32046 38.6576C7.28382 38.7029 7.2497 38.7499 7.21753 38.7986C7.18536 38.8469 7.15572 38.897 7.12802 38.9482C7.10061 38.9997 7.07544 39.052 7.05278 39.1057C7.03013 39.1594 7.00971 39.2139 6.99209 39.2693C6.97447 39.3247 6.95936 39.3809 6.94677 39.4377C6.93419 39.4947 6.9244 39.5521 6.91713 39.6097C6.90985 39.6676 6.9051 39.7255 6.90314 39.7837C6.90118 39.8419 6.90202 39.9 6.90538 39.9582C6.90873 40.0164 6.91489 40.0743 6.92356 40.1319C6.93223 40.1895 6.9437 40.2466 6.95768 40.3031C6.97139 40.3596 6.98789 40.4153 7.00719 40.4704C7.02621 40.5255 7.04775 40.5794 7.0718 40.6323L13.4181 55.3399C13.4354 55.3891 13.4556 55.4372 13.4782 55.4845C13.5009 55.5315 13.5258 55.5773 13.5532 55.6218C13.5803 55.6663 13.6099 55.7091 13.6418 55.7505C13.6737 55.7919 13.7076 55.8316 13.7436 55.8693C13.7797 55.9071 13.8175 55.9432 13.8572 55.977C13.8969 56.0109 13.9383 56.0425 13.9814 56.0721C14.0245 56.1015 14.0689 56.1289 14.1148 56.1538C14.1607 56.1787 14.2077 56.2011 14.2561 56.2209C14.3042 56.2411 14.3534 56.2584 14.4035 56.2732C14.4535 56.2881 14.5042 56.3001 14.5556 56.3096C14.6068 56.3191 14.6586 56.3261 14.7106 56.33C14.7626 56.3342 14.8146 56.3356 14.867 56.3342C14.919 56.3328 14.971 56.3289 15.0227 56.3222C15.0745 56.3152 15.126 56.306 15.1766 56.2937C15.2275 56.2816 15.2773 56.2668 15.3265 56.2495C15.3757 56.2321 15.4241 56.2123 15.4711 56.1896L18.271 54.7704C18.3213 54.741 18.3703 54.7094 18.4175 54.6758C18.4651 54.642 18.5107 54.6062 18.5549 54.5681C18.5991 54.5301 18.6413 54.4901 18.6816 54.4481C18.7222 54.4065 18.7605 54.3628 18.7971 54.3172C18.8335 54.2719 18.8676 54.2249 18.8998 54.1763C18.9319 54.1279 18.9619 54.0778 18.9893 54.0266C19.017 53.9752 19.0419 53.9229 19.0648 53.8692C19.0874 53.8155 19.1076 53.7609 19.1252 53.7055C19.1431 53.6501 19.1582 53.5939 19.1705 53.5369C19.1831 53.4801 19.1932 53.4227 19.2004 53.3651C19.2077 53.3072 19.2122 53.2493 19.2142 53.1911C19.2161 53.133 19.2153 53.0748 19.2119 53.0166C19.2086 52.9584 19.2027 52.9005 19.1937 52.8429C19.1851 52.7853 19.1739 52.7282 19.1599 52.6717C19.1459 52.6152 19.1294 52.5596 19.1104 52.5045C19.0911 52.4494 19.0695 52.3954 19.0455 52.3425L18.6724 51.474Z" fill="url(#paint0_linear_1_37)"/></g><path d="M50.6366 37.3355C50.6128 37.258 50.5849 37.1822 50.5533 37.1075C50.5217 37.0329 50.4861 36.9601 50.447 36.8891C50.4078 36.8183 50.365 36.7495 50.3189 36.6829C50.2727 36.6164 50.2232 36.5523 50.1706 36.4908C50.1178 36.4293 50.0618 36.3705 50.0031 36.3149C49.9443 36.2589 49.8828 36.2063 49.8188 36.1568C49.7547 36.1076 49.6881 36.0614 49.619 36.0186C49.5502 35.9761 49.4795 35.937 49.4065 35.9017C49.3337 35.8665 49.2591 35.8349 49.183 35.8072C49.1069 35.7792 49.0294 35.7557 48.9511 35.7359C48.8725 35.716 48.7931 35.7003 48.7128 35.6886C48.6328 35.6768 48.5522 35.6696 48.4711 35.6662C48.3903 35.6626 48.3095 35.6634 48.2286 35.6684C48.1475 35.6732 48.0672 35.6824 47.9872 35.6956C47.9075 35.7087 47.8284 35.7258 47.75 35.747C47.672 35.7686 47.5951 35.7938 47.5196 35.8228L36.8524 40.6134C36.8583 40.6897 36.8625 40.7664 36.8644 40.8433C36.8667 40.9199 36.8667 40.9969 36.8647 41.0735C36.863 41.1504 36.8591 41.2271 36.8532 41.3034C36.8476 41.3801 36.8398 41.4564 36.83 41.5325C36.8202 41.6089 36.8085 41.6847 36.7948 41.7602C36.7811 41.8357 36.7657 41.9109 36.7481 41.9856C36.7304 42.0603 36.7111 42.1347 36.6896 42.2086C36.6683 42.2821 36.6451 42.3554 36.62 42.4278C36.5948 42.5006 36.5679 42.5722 36.5391 42.6435C36.5103 42.7145 36.4795 42.785 36.4471 42.8547C36.4146 42.924 36.3802 42.9929 36.3444 43.0605C36.3084 43.1285 36.2706 43.1954 36.2312 43.2611C36.1917 43.3271 36.1506 43.3917 36.1078 43.4555C36.065 43.5193 36.0205 43.5819 35.9747 43.6434C35.9285 43.7047 35.881 43.7651 35.832 43.8241C35.7828 43.8832 35.7322 43.9408 35.6801 43.997C35.6281 44.0535 35.5744 44.1086 35.5196 44.162C35.4648 44.2157 35.4083 44.268 35.3506 44.3187C35.293 44.3693 35.2343 44.4185 35.1741 44.4663C35.114 44.5139 35.0525 44.56 34.9901 44.6045C34.9274 44.649 34.864 44.6918 34.7991 44.7332C34.7344 44.7743 34.6687 44.814 34.6019 44.8518C34.535 44.8895 34.4673 44.9256 34.3988 44.96C34.33 44.9944 34.2606 45.0269 34.1904 45.0576C34.1199 45.0884 34.0489 45.1175 33.9773 45.1444C33.9054 45.1715 33.833 45.1967 33.7597 45.2202C33.6867 45.2434 33.6131 45.2649 33.5387 45.2845C33.4646 45.3041 33.3899 45.3217 33.3149 45.3374C33.2397 45.353 33.1642 45.3667 33.0884 45.3788C33.0126 45.3905 32.9365 45.4003 32.8601 45.4081C32.7838 45.416 32.7074 45.4218 32.6308 45.426C32.5541 45.4299 32.4772 45.4319 32.4006 45.4316C31.8658 45.4646 24.6225 44.0826 23.8986 43.9844C23.839 43.9729 23.7809 43.9559 23.7246 43.9329C23.6684 43.9103 23.6147 43.882 23.5638 43.8488C23.5129 43.8157 23.4659 43.7777 23.4223 43.7352C23.3789 43.6927 23.34 43.6465 23.3056 43.5965C23.2712 43.5464 23.2419 43.4932 23.2178 43.4376C23.1937 43.3816 23.175 43.324 23.1621 43.2647C23.1493 43.2054 23.1423 43.1453 23.1412 43.0843C23.14 43.0236 23.1448 42.9635 23.1554 42.9036C23.1661 42.8438 23.1826 42.7853 23.2044 42.7288C23.2265 42.672 23.2536 42.618 23.2863 42.5666C23.3188 42.5154 23.356 42.4676 23.3977 42.4236C23.4396 42.3795 23.4852 42.3397 23.5347 42.3048C23.5845 42.2695 23.6368 42.2396 23.6925 42.2144C23.7478 42.1895 23.8052 42.1702 23.8642 42.1565C23.9235 42.1428 23.9834 42.135 24.0441 42.133C24.1048 42.1311 24.1652 42.135 24.2253 42.1448C24.597 42.1918 32.2495 43.6172 32.4006 43.5643C32.4786 43.5637 32.5567 43.5601 32.6341 43.5525C32.7119 43.5453 32.7891 43.5344 32.866 43.5201C32.9426 43.5056 33.0187 43.4879 33.0937 43.4667C33.1689 43.4454 33.2428 43.4208 33.3158 43.3928C33.3888 43.3649 33.4601 43.3338 33.5303 43.2994C33.6005 43.265 33.6688 43.2275 33.7356 43.187C33.8022 43.1464 33.8671 43.1031 33.9297 43.0566C33.9927 43.0102 34.0531 42.961 34.1115 42.9089C34.1697 42.8572 34.2257 42.8027 34.2791 42.7459C34.3325 42.6888 34.3834 42.6295 34.4315 42.568C34.4796 42.5064 34.5247 42.4429 34.5672 42.3772C34.6094 42.3118 34.6486 42.2444 34.6849 42.175C34.7213 42.1059 34.7543 42.0351 34.7842 41.963C34.8142 41.8908 34.8407 41.8175 34.864 41.7431C34.8872 41.6684 34.907 41.5929 34.9233 41.5166C34.9398 41.4402 34.9529 41.3633 34.9624 41.2858C34.9716 41.2083 34.9778 41.1306 34.9803 41.0522C34.9825 40.9742 34.9817 40.8962 34.977 40.8184C34.9725 40.7404 34.9644 40.6626 34.9529 40.5854C34.9412 40.5082 34.926 40.4316 34.9076 40.3558C34.8891 40.28 34.8673 40.205 34.8419 40.1312C34.8167 40.057 34.7882 39.9846 34.7563 39.9133C34.7247 39.842 34.6897 39.772 34.6514 39.7041C34.6133 39.6358 34.5722 39.5695 34.528 39.5052C34.4841 39.4406 34.4371 39.3782 34.3873 39.3181C34.3375 39.2579 34.2852 39.2 34.2304 39.1446C34.1753 39.089 34.118 39.0361 34.0584 38.9858C33.9985 38.9357 33.9367 38.8882 33.8727 38.8434C33.8086 38.7986 33.7426 38.757 33.6749 38.7184C33.6072 38.6795 33.5379 38.644 33.4668 38.6115C33.3958 38.5791 33.3233 38.5497 33.2498 38.524C33.1762 38.498 33.1015 38.4753 33.0257 38.4563L26.2691 36.7752C26.1091 36.738 25.969 36.6634 25.849 36.5512C23.4318 34.2635 20.1561 35.0945 19.6896 35.2251L14.6965 37.5411L19.9696 49.7741C20.1933 49.6985 20.4219 49.6395 20.6543 49.597C20.8867 49.5545 21.1211 49.529 21.3572 49.5204C21.5935 49.5114 21.8291 49.5198 22.064 49.5453C22.299 49.5704 22.5311 49.6124 22.7599 49.6711L29.9741 51.6509C30.1137 51.6884 30.2558 51.7119 30.4001 51.7211C30.5444 51.7306 30.6885 51.7256 30.8317 51.7063C30.9752 51.687 31.1153 51.654 31.2521 51.607C31.3889 51.56 31.5198 51.4999 31.6445 51.4269L49.4795 41.323C49.5564 41.2699 49.6311 41.2134 49.7035 41.1538C49.7757 41.0942 49.8453 41.0318 49.9125 40.9661C49.9793 40.9006 50.0434 40.8324 50.1043 40.7614C50.1656 40.6903 50.2235 40.6167 50.2783 40.5407C50.3329 40.4649 50.3843 40.3865 50.4324 40.3063C50.4805 40.2257 50.5253 40.1435 50.5664 40.0593C50.6073 39.9751 50.6447 39.8892 50.6786 39.8017C50.7121 39.7144 50.7421 39.6257 50.7681 39.5357C50.7944 39.4456 50.8165 39.3547 50.8349 39.263C50.8531 39.1709 50.8677 39.0784 50.878 38.9852C50.8884 38.8921 50.8948 38.7986 50.8973 38.7049C50.8995 38.6115 50.8981 38.5178 50.8926 38.4241C50.887 38.3307 50.8772 38.2376 50.8637 38.145C50.85 38.0521 50.8327 37.9601 50.8112 37.8689C50.7899 37.7777 50.7644 37.6877 50.7354 37.5984C50.7063 37.5095 50.6733 37.4219 50.6366 37.3355Z" fill="url(#paint1_linear_1_37)"/><path d="M17.5992 30.7057H43.8986C43.9543 30.7054 44.01 30.7023 44.0653 30.6967C44.121 30.6909 44.1758 30.6825 44.2307 30.6713C44.2852 30.6604 44.3392 30.6464 44.3923 30.6302C44.4457 30.6137 44.4981 30.5946 44.5495 30.5731C44.601 30.5516 44.6511 30.5275 44.7003 30.5012C44.7492 30.4747 44.7971 30.4458 44.8432 30.4148C44.8894 30.3835 44.9341 30.3502 44.9772 30.3147C45.02 30.2791 45.0614 30.2417 45.1005 30.2022C45.14 30.1625 45.1772 30.1211 45.2124 30.078C45.2477 30.0347 45.2807 29.9899 45.3117 29.9435C45.3425 29.8971 45.371 29.8492 45.3973 29.8C45.4233 29.7508 45.4471 29.7004 45.4684 29.6487C45.4896 29.5972 45.5084 29.5446 45.5243 29.4912C45.5405 29.4378 45.5539 29.3838 45.5649 29.329C45.5755 29.2744 45.5836 29.2193 45.5892 29.1637C45.5945 29.1083 45.5973 29.0526 45.597 28.9967V19.7241C45.4367 19.9303 45.2672 20.1286 45.0888 20.3191C44.9103 20.5095 44.7232 20.6913 44.528 20.8648C44.3327 21.0382 44.1297 21.2021 43.9193 21.3568C43.709 21.5112 43.4919 21.6558 43.2682 21.7906C43.0444 21.9251 42.8151 22.049 42.5798 22.1626C42.3449 22.2762 42.1049 22.3785 41.8604 22.47C41.616 22.5615 41.3676 22.6415 41.1158 22.71C40.8638 22.7785 40.6093 22.8353 40.3522 22.8803C40.3394 22.9438 40.3243 23.0065 40.3064 23.0686C40.2882 23.1307 40.2678 23.1919 40.2448 23.2523C40.2216 23.3128 40.1962 23.3723 40.1679 23.4305C40.1399 23.4887 40.1095 23.5458 40.0767 23.6014C40.0437 23.6571 40.0088 23.7113 39.9713 23.7642C39.9338 23.8168 39.8944 23.868 39.8527 23.9175C39.811 23.967 39.7674 24.0145 39.7215 24.0601C39.6759 24.106 39.6284 24.1499 39.5791 24.1916C39.5296 24.2333 39.4787 24.273 39.4261 24.3105C39.3733 24.348 39.3193 24.3832 39.2636 24.4162C39.208 24.4492 39.1509 24.4797 39.0927 24.5079C39.0345 24.5359 38.9752 24.5616 38.9151 24.5849C38.8547 24.6081 38.7934 24.6288 38.7313 24.6467C38.6692 24.6649 38.6066 24.6802 38.5431 24.6928C38.4799 24.7057 38.4161 24.7158 38.3518 24.7233C38.2877 24.7306 38.2231 24.7353 38.1585 24.7373C38.0939 24.7395 38.0293 24.7387 37.9649 24.7353C37.9003 24.732 37.836 24.7258 37.7719 24.7169C37.7079 24.7082 37.6444 24.6967 37.5812 24.6825C37.5182 24.6685 37.4559 24.6517 37.3941 24.6321C37.3325 24.6128 37.2718 24.591 37.212 24.5664C37.1521 24.5418 37.0934 24.5149 37.0358 24.4856C36.9781 24.4562 36.9219 24.4243 36.8671 24.3902C36.8123 24.3561 36.7588 24.3197 36.7071 24.2811C36.6551 24.2425 36.605 24.2017 36.5566 24.1589C36.5082 24.1161 36.4615 24.071 36.4168 24.0243C36.3723 23.9776 36.3295 23.9292 36.2889 23.8789C36.2484 23.8285 36.2101 23.7765 36.1737 23.7231C36.1373 23.6694 36.1035 23.6146 36.0719 23.5581C36.0403 23.5016 36.0109 23.4439 35.9843 23.3852C35.9575 23.3262 35.9331 23.2663 35.9113 23.2054C35.8895 23.1447 35.8705 23.0828 35.8537 23.0205H25.8304C25.7957 23.1444 25.7507 23.2646 25.6959 23.3813C25.6411 23.4979 25.5767 23.6092 25.5034 23.7153C25.4302 23.821 25.3485 23.9203 25.2587 24.0126C25.1686 24.1049 25.0719 24.1891 24.9681 24.2654C24.864 24.3415 24.7547 24.4087 24.6397 24.4668C24.5245 24.5247 24.4056 24.5728 24.2825 24.6109C24.1594 24.6492 24.0341 24.6769 23.9066 24.6942C23.7788 24.7116 23.6507 24.7183 23.522 24.7144C23.3931 24.7102 23.2655 24.6956 23.1394 24.6705C23.0129 24.6453 22.8896 24.6098 22.7693 24.5639C22.6488 24.5183 22.533 24.4626 22.4216 24.3977C22.3106 24.3326 22.2054 24.259 22.1064 24.1765C22.0077 24.094 21.9162 24.0036 21.8323 23.906C21.7481 23.8081 21.6729 23.7043 21.6063 23.5939C21.5394 23.4837 21.4824 23.3687 21.4348 23.249C21.3873 23.129 21.3501 23.0062 21.3229 22.8801C21.0662 22.8347 20.8119 22.778 20.5602 22.7092C20.3087 22.6406 20.0606 22.5606 19.8164 22.4694C19.5723 22.3783 19.3325 22.2759 19.0976 22.1629C18.8626 22.0496 18.6333 21.926 18.4098 21.7917C18.186 21.6575 17.969 21.5134 17.7586 21.3593C17.548 21.2054 17.3452 21.0421 17.1497 20.8695C16.9539 20.6969 16.7668 20.5157 16.5878 20.3258C16.4088 20.1361 16.2387 19.9387 16.0779 19.7334V29.1835C16.0779 29.2333 16.0804 29.2831 16.0852 29.3326C16.0902 29.3824 16.0975 29.4316 16.1073 29.4806C16.1168 29.5292 16.1291 29.5776 16.1433 29.6255C16.1579 29.673 16.1747 29.72 16.1937 29.7659C16.2127 29.812 16.2342 29.8571 16.2575 29.901C16.2809 29.9449 16.3067 29.9877 16.3344 30.0291C16.3621 30.0705 16.3917 30.1105 16.4233 30.1491C16.4549 30.1877 16.4882 30.2246 16.5235 30.2598C16.5587 30.2951 16.5956 30.3284 16.6342 30.36C16.6725 30.3916 16.7125 30.4212 16.7539 30.4489C16.7953 30.4766 16.8381 30.5023 16.882 30.5258C16.926 30.5493 16.971 30.5706 17.0171 30.5896C17.063 30.6089 17.11 30.6257 17.1575 30.64C17.2051 30.6545 17.2535 30.6665 17.3024 30.6763C17.3511 30.6861 17.4003 30.6934 17.4501 30.6981C17.4996 30.7032 17.5494 30.7057 17.5992 30.7057Z" fill="url(#paint2_linear_1_37)"/><path d="M21.2855 20.9566C21.2916 20.8827 21.3011 20.8097 21.3143 20.737C21.3274 20.6643 21.3439 20.5924 21.3641 20.5214C21.3839 20.45 21.4074 20.3801 21.434 20.3113C21.4606 20.2425 21.4905 20.1748 21.5238 20.1088C21.5568 20.0428 21.5931 19.9787 21.6323 19.9161C21.6717 19.8534 21.7137 19.793 21.7587 19.7345C21.804 19.6761 21.8516 19.6199 21.9022 19.5659C21.9526 19.5119 22.0054 19.4604 22.0608 19.4118C22.1162 19.3628 22.1738 19.3167 22.2337 19.2733C22.2932 19.2299 22.3551 19.1897 22.4188 19.1522C22.4823 19.1147 22.5478 19.0803 22.6146 19.0493C22.6815 19.0179 22.7497 18.99 22.8194 18.9653C22.889 18.9407 22.9595 18.9195 23.0311 18.9016C23.1027 18.8837 23.1752 18.8694 23.2482 18.8585C23.3212 18.8473 23.3945 18.84 23.4683 18.8361C23.5421 18.8322 23.6157 18.8316 23.6895 18.8347C23.7634 18.8381 23.8367 18.8445 23.91 18.8549C23.983 18.8649 24.0554 18.8786 24.1273 18.8957C24.1992 18.9128 24.2699 18.9335 24.3399 18.9572C24.4098 18.981 24.4783 19.0084 24.5454 19.0386C24.6129 19.0691 24.6783 19.1027 24.7424 19.1396C24.8064 19.1762 24.8685 19.216 24.9289 19.2588C24.9891 19.3016 25.0472 19.3469 25.1032 19.3953C25.1588 19.4434 25.2125 19.4943 25.2635 19.5477C25.3144 19.6011 25.3627 19.6568 25.4086 19.7147C25.4542 19.7729 25.497 19.8327 25.537 19.8951C25.577 19.9572 25.6139 20.021 25.6478 20.0867C25.6816 20.1521 25.7121 20.2193 25.7398 20.2881C25.7672 20.3566 25.7913 20.4263 25.812 20.4973C25.8327 20.5681 25.85 20.6397 25.864 20.7124C25.8777 20.7848 25.888 20.8578 25.895 20.9314C25.902 21.005 25.9054 21.0788 25.9051 21.1527H35.7698C35.767 20.9708 35.7855 20.7913 35.8257 20.6142C35.866 20.4369 35.9267 20.2671 36.0081 20.1046C36.0892 19.9418 36.1888 19.7913 36.3063 19.6529C36.4238 19.5141 36.5561 19.3916 36.7032 19.285C36.7857 19.2235 36.8718 19.1679 36.9616 19.1181C37.0517 19.068 37.1443 19.0244 37.2402 18.9869C37.3359 18.9494 37.4338 18.9184 37.5336 18.8937C37.6335 18.8694 37.7345 18.8515 37.8366 18.8406C37.9389 18.8297 38.0413 18.8255 38.1442 18.8283C38.2469 18.8308 38.349 18.8403 38.4505 18.8565C38.552 18.873 38.6519 18.896 38.7504 18.9256C38.8488 18.9553 38.945 18.9914 39.0387 19.0336C39.1322 19.0761 39.2228 19.1248 39.3098 19.1793C39.397 19.2336 39.4801 19.2937 39.5593 19.3595C39.6384 19.4249 39.7131 19.4957 39.7828 19.5712C39.8527 19.6467 39.917 19.7267 39.976 19.8106C40.0353 19.8948 40.0885 19.9826 40.136 20.0738C40.1833 20.165 40.2247 20.2593 40.2594 20.3558C40.2943 20.4525 40.3229 20.5513 40.3444 20.6517C40.3662 20.7524 40.3813 20.8539 40.3894 20.9566C40.5732 20.9129 40.7547 20.862 40.934 20.8033C41.1133 20.7446 41.2898 20.6785 41.4638 20.6053C41.6375 20.5317 41.8081 20.4511 41.9751 20.3636C42.1421 20.2758 42.3054 20.1812 42.4646 20.08C42.6237 19.9784 42.7784 19.8708 42.9286 19.7564C43.0785 19.6422 43.2237 19.5217 43.3638 19.3953C43.504 19.2688 43.6385 19.1368 43.7677 18.9989C43.8967 18.8613 44.0197 18.7184 44.1369 18.5704C44.2539 18.4224 44.3646 18.2697 44.469 18.1122C44.5733 17.955 44.6709 17.7937 44.7618 17.6281C44.8524 17.4628 44.9363 17.2938 45.013 17.1212C45.0896 16.9487 45.159 16.7733 45.2211 16.5951C45.2832 16.4167 45.3377 16.2362 45.3844 16.0533C45.4314 15.8704 45.4706 15.6861 45.5022 15.4998C45.5338 15.3138 45.5573 15.1266 45.5732 14.9384C45.5892 14.7504 45.597 14.5619 45.597 14.3731V10.7031C45.597 10.6536 45.5945 10.6043 45.5895 10.5551C45.5844 10.5059 45.5769 10.4569 45.5671 10.4086C45.5573 10.3599 45.5453 10.3121 45.5307 10.2648C45.5162 10.2172 45.4997 10.1708 45.4807 10.1252C45.4616 10.0793 45.4404 10.0349 45.4169 9.99123C45.3937 9.9476 45.3682 9.90508 45.3405 9.86396C45.3131 9.82285 45.2837 9.78341 45.2521 9.74509C45.2208 9.70677 45.1875 9.67013 45.1526 9.63516C45.1176 9.6002 45.0812 9.56692 45.0429 9.53559C45.0046 9.50426 44.9649 9.47461 44.9238 9.4472C44.8829 9.41951 44.8404 9.39406 44.7968 9.37084C44.7531 9.34735 44.7087 9.32609 44.6631 9.30707C44.6172 9.28805 44.5708 9.27126 44.5235 9.25672C44.4762 9.24246 44.4284 9.23015 44.3797 9.22036C44.3313 9.21057 44.2824 9.2033 44.2332 9.19826C44.1839 9.19323 44.1347 9.19071 44.0852 9.19043H42.5546C42.5546 9.19043 41.8215 12.5335 41.668 12.9256C41.6372 13.0277 41.5986 13.1265 41.5527 13.2227C41.5066 13.3186 41.4534 13.4106 41.3933 13.4985C41.3332 13.5863 41.2666 13.6691 41.1936 13.7466C41.1209 13.8243 41.0426 13.8959 40.9586 13.9617C40.8747 14.0271 40.7863 14.0861 40.6935 14.1382C40.6006 14.1902 40.5044 14.2349 40.4045 14.2721C40.305 14.3093 40.2029 14.3387 40.0988 14.3605C39.9945 14.3821 39.8893 14.3955 39.783 14.4011H21.8921C19.511 14.3242 19.7555 10.9473 19.363 9.19043H17.5992C17.5494 9.19043 17.4999 9.19267 17.4504 9.1977C17.4012 9.20246 17.3519 9.20973 17.3033 9.21924C17.2546 9.22875 17.2065 9.24078 17.1589 9.25504C17.1114 9.26959 17.0647 9.28609 17.0188 9.30511C16.9729 9.32385 16.9282 9.34511 16.8843 9.36832C16.8404 9.39154 16.7978 9.41699 16.7564 9.4444C16.7151 9.47209 16.6753 9.50146 16.6367 9.53279C16.5984 9.5644 16.5615 9.5974 16.5263 9.63237C16.491 9.66761 16.4577 9.70425 16.4261 9.74257C16.3945 9.78061 16.3646 9.82061 16.3369 9.86173C16.3092 9.90284 16.2835 9.94536 16.26 9.98899C16.2365 10.0329 16.2152 10.0777 16.1959 10.1233C16.1766 10.1691 16.1598 10.2158 16.1453 10.2634C16.1305 10.3107 16.1184 10.3588 16.1084 10.4074C16.0986 10.4561 16.091 10.5053 16.086 10.5546C16.081 10.6041 16.0782 10.6536 16.0779 10.7034V14.4011C16.0784 14.5893 16.0868 14.7773 16.1031 14.965C16.1193 15.1527 16.1433 15.3392 16.1749 15.5247C16.2068 15.7104 16.2463 15.8942 16.2935 16.0765C16.3408 16.2586 16.3956 16.4388 16.4577 16.6164C16.5201 16.794 16.5895 16.9688 16.6664 17.1408C16.7433 17.3126 16.8272 17.4809 16.9181 17.6457C17.009 17.8107 17.1066 17.9715 17.2113 18.1282C17.3156 18.2848 17.4263 18.4367 17.5433 18.5841C17.6605 18.7315 17.7835 18.8739 17.9125 19.0109C18.0414 19.148 18.176 19.2795 18.3158 19.4053C18.4559 19.5312 18.6008 19.6509 18.7508 19.7647C18.901 19.8783 19.0554 19.9854 19.2142 20.0864C19.3734 20.1871 19.5362 20.2811 19.7029 20.3681C19.8699 20.4553 20.0399 20.5353 20.2136 20.6083C20.387 20.6811 20.5633 20.7465 20.7423 20.8047C20.9213 20.8629 21.1023 20.9135 21.2855 20.9566Z" fill="url(#paint3_linear_1_37)"/><mask id="mask1_1_37" style="mask-type:luminance" maskUnits="userSpaceOnUse" x="21" y="4" width="20" height="9"><path d="M21.1951 4.11035H40.6716V12.6022H21.1951V4.11035Z" fill="#fff"/></mask><g mask="url(#mask1_1_37)"><path d="M21.6776 11.992C21.6855 12.0969 21.7118 12.1968 21.7568 12.2919C21.8021 12.3867 21.8625 12.4703 21.9389 12.5428L39.7831 12.5336C39.9889 12.06 40.1319 11.5683 40.2121 11.0581L40.6415 9.1905H39.6057V6.01555C39.6057 5.9543 39.6027 5.89332 39.5968 5.83234C39.5906 5.77165 39.5817 5.71123 39.5699 5.65109C39.5579 5.59124 39.5431 5.53194 39.5255 5.47348C39.5076 5.41474 39.4871 5.3574 39.4636 5.30062C39.4401 5.24412 39.4141 5.18902 39.3853 5.13503C39.3565 5.08105 39.3252 5.02875 39.2913 4.97784C39.2572 4.92693 39.2209 4.87798 39.182 4.83071C39.1434 4.78344 39.1023 4.73813 39.0592 4.69478C39.0158 4.65142 38.9705 4.61058 38.9232 4.57171C38.876 4.53283 38.827 4.49646 38.7761 4.46262C38.7255 4.4285 38.6729 4.39717 38.6189 4.36836C38.5652 4.33955 38.5098 4.31326 38.4533 4.29004C38.3968 4.26654 38.3395 4.24585 38.281 4.22823C38.2226 4.2106 38.1633 4.19578 38.1031 4.18375C38.0433 4.17172 37.9829 4.16277 37.9222 4.1569C37.8612 4.15103 37.8002 4.14795 37.739 4.14795H23.936C23.875 4.14823 23.814 4.15131 23.7533 4.15746C23.6924 4.16361 23.6322 4.17256 23.5724 4.18459C23.5125 4.1969 23.4532 4.21172 23.3948 4.22962C23.3363 4.24752 23.279 4.26822 23.2225 4.29144C23.1662 4.31493 23.1111 4.34123 23.0572 4.37004C23.0035 4.39885 22.9511 4.43045 22.9002 4.4643C22.8496 4.49842 22.8007 4.53478 22.7534 4.57366C22.7061 4.61226 22.6611 4.65338 22.6177 4.69645C22.5747 4.73981 22.5335 4.78512 22.4949 4.83211C22.4561 4.87938 22.4197 4.92833 22.3859 4.97924C22.3517 5.03014 22.3204 5.08245 22.2916 5.13615C22.2628 5.19014 22.2365 5.24524 22.213 5.30174C22.1895 5.35824 22.1691 5.41558 22.1512 5.47404C22.1333 5.5325 22.1185 5.59152 22.1062 5.65165C22.0941 5.71151 22.0852 5.77193 22.079 5.83262C22.0729 5.8936 22.0698 5.9543 22.0695 6.01555V9.1905H21.2483C21.3448 9.80838 21.5898 11.3938 21.6776 11.992ZM23.936 6.01555H37.739C37.7465 6.76824 37.7337 8.41683 37.739 9.18127H23.936C23.9489 8.41236 23.9268 6.77216 23.936 6.01555Z" fill="url(#paint4_linear_1_37)"/></g><path d="M23.1426 21.1245V22.4226C23.1437 22.4548 23.1485 22.4867 23.1563 22.518C23.1641 22.5493 23.1753 22.5792 23.1896 22.6083C23.2038 22.6371 23.2209 22.6643 23.241 22.6894C23.2612 22.7149 23.2836 22.7378 23.3084 22.7582C23.3333 22.7789 23.3602 22.7966 23.3887 22.8114C23.4173 22.8262 23.4472 22.838 23.4782 22.8464C23.5093 22.855 23.5412 22.8601 23.5733 22.862C23.6055 22.8637 23.6374 22.862 23.6693 22.8573C23.7012 22.8522 23.7322 22.8438 23.7624 22.8324C23.7923 22.8209 23.8211 22.8061 23.848 22.7885C23.8751 22.7711 23.9 22.7507 23.9227 22.7278C23.9453 22.7048 23.9655 22.6799 23.9828 22.6528C24.0004 22.6257 24.0147 22.5969 24.0262 22.5666C24.0374 22.5364 24.0455 22.5054 24.0502 22.4735C24.0553 22.4416 24.0564 22.4097 24.0544 22.3773C24.0525 22.3451 24.0471 22.3135 24.0385 22.2825V21.1245C24.0379 21.0957 24.0346 21.0669 24.0284 21.0383C24.0223 21.0101 24.0136 20.9824 24.0021 20.9558C23.9904 20.929 23.9764 20.9038 23.9602 20.8797C23.9437 20.8557 23.9249 20.8336 23.9042 20.8132C23.8835 20.7927 23.8611 20.7746 23.8368 20.7586C23.8125 20.7427 23.787 20.7293 23.7599 20.7183C23.733 20.7072 23.7053 20.699 23.6768 20.6934C23.6483 20.6879 23.6198 20.6851 23.5907 20.6851C23.5616 20.6851 23.5328 20.6879 23.5042 20.6934C23.4757 20.699 23.448 20.7072 23.4212 20.7183C23.3943 20.7293 23.3686 20.7427 23.3442 20.7586C23.3202 20.7746 23.2975 20.7927 23.2768 20.8132C23.2561 20.8336 23.2374 20.8557 23.2212 20.8797C23.2047 20.9038 23.1907 20.929 23.1792 20.9558C23.1678 20.9824 23.1588 21.0101 23.1526 21.0383C23.1465 21.0669 23.1431 21.0957 23.1426 21.1245Z" fill="url(#paint5_linear_1_37)"/><path d="M37.6362 21.1245C37.6362 21.1973 37.6362 22.3883 37.6362 22.4227C37.6368 22.4518 37.6401 22.4806 37.6463 22.5088C37.6525 22.5373 37.6611 22.565 37.6729 22.5916C37.6843 22.6185 37.6983 22.6436 37.7145 22.6677C37.7311 22.6917 37.7498 22.7138 37.7705 22.7343C37.7912 22.7547 37.8136 22.7729 37.8379 22.7888C37.8622 22.805 37.8877 22.8184 37.9148 22.8294C37.9417 22.8405 37.9694 22.8487 37.9979 22.8543C38.0264 22.8598 38.0552 22.8626 38.0843 22.8626C38.1134 22.8626 38.1422 22.8598 38.1708 22.8543C38.1993 22.8487 38.227 22.8405 38.2538 22.8294C38.2807 22.8184 38.3064 22.805 38.3307 22.7888C38.3548 22.7729 38.3775 22.7547 38.3982 22.7343C38.4189 22.7138 38.4376 22.6917 38.4541 22.6677C38.4703 22.6436 38.4843 22.6185 38.4958 22.5916C38.5072 22.565 38.5162 22.5373 38.5223 22.5088C38.5285 22.4806 38.5319 22.4518 38.5321 22.4227V21.1245C38.5316 21.0957 38.5282 21.0669 38.5221 21.0387C38.5156 21.0104 38.507 20.9827 38.4952 20.9562C38.4837 20.9296 38.4698 20.9044 38.4533 20.8804C38.4368 20.8566 38.4183 20.8345 38.3976 20.8141C38.3769 20.7939 38.3542 20.7757 38.3302 20.7598C38.3058 20.7439 38.2804 20.7304 38.2535 20.7195C38.2267 20.7086 38.199 20.7002 38.1705 20.6946C38.1419 20.689 38.1134 20.6865 38.0843 20.6865C38.0552 20.6865 38.0267 20.689 37.9982 20.6946C37.9696 20.7002 37.942 20.7086 37.9151 20.7195C37.8882 20.7304 37.8628 20.7439 37.8385 20.7598C37.8141 20.7757 37.7917 20.7939 37.771 20.8141C37.7504 20.8345 37.7316 20.8566 37.7154 20.8804C37.6989 20.9044 37.6849 20.9296 37.6732 20.9562C37.6617 20.9827 37.6527 21.0104 37.6466 21.0387C37.6404 21.0669 37.6371 21.0957 37.6362 21.1245Z" fill="url(#paint6_linear_1_37)"/><defs><linearGradient id="paint0_linear_1_37" x1="13.367" y1="60.171" x2="12.517" y2="23.096" gradientUnits="userSpaceOnUse"><stop stop-color="#FF6A45"/><stop offset="1" stop-color="#FF6A45" stop-opacity=".4"/></linearGradient><linearGradient id="paint1_linear_1_37" x1="33.703" y1="54.99" x2="33.493" y2="23.434" gradientUnits="userSpaceOnUse"><stop stop-color="#FF6A45"/><stop offset="1" stop-color="#FF6A45" stop-opacity=".4"/></linearGradient><linearGradient id="paint2_linear_1_37" x1="31.575" y1="32.845" x2="31.465" y2="12.162" gradientUnits="userSpaceOnUse"><stop stop-color="#FF6A45"/><stop offset="1" stop-color="#FF6A45" stop-opacity=".4"/></linearGradient><linearGradient id="paint3_linear_1_37" x1="31.575" y1="23.483" x2="31.445" y2=".953" gradientUnits="userSpaceOnUse"><stop stop-color="#FF6A45"/><stop offset="1" stop-color="#FF6A45" stop-opacity=".4"/></linearGradient><linearGradient id="paint4_linear_1_37" x1="31.43" y1="14.178" x2="31.332" y2="-1.633" gradientUnits="userSpaceOnUse"><stop stop-color="#FF6A45"/><stop offset="1" stop-color="#FF6A45" stop-opacity=".4"/></linearGradient><linearGradient id="paint5_linear_1_37" x1="23.622" y1="23.287" x2="23.482" y2="19.19" gradientUnits="userSpaceOnUse"><stop stop-color="#FF6A45"/><stop offset="1" stop-color="#FF6A45" stop-opacity=".4"/></linearGradient><linearGradient id="paint6_linear_1_37" x1="38.107" y1="23.287" x2="37.964" y2="19.193" gradientUnits="userSpaceOnUse"><stop stop-color="#FF6A45"/><stop offset="1" stop-color="#FF6A45" stop-opacity=".4"/></linearGradient></defs></svg>