<svg width="18" height="19" viewBox="0 0 18 19" fill="none" xmlns="http://www.w3.org/2000/svg"><g filter="url(#filter0_f_35_103)"><path fill-rule="evenodd" clip-rule="evenodd" d="M14 14.2159C14 14.4238 13.9124 14.6233 13.7564 14.7703C13.6004 14.9174 13.3889 15 13.1683 15H4.83417C4.72459 15.0001 4.61607 14.9798 4.51482 14.9403C4.41356 14.9009 4.32156 14.8429 4.24408 14.7699C4.1666 14.6968 4.10516 14.6101 4.06327 14.5146C4.02139 14.4191 3.99989 14.3168 4 14.2135V13.4286C4 11.3598 7.33333 10.2857 7.33333 10.2857C7.33333 10.2857 7.52417 9.96436 7.33333 9.5C6.6325 9.01286 6.54667 8.25071 6.5 6.35714C6.64417 4.46121 8.05583 4 9 4C9.94417 4 11.3558 4.46043 11.5 6.35714C11.4533 8.25071 11.3675 9.01286 10.6667 9.5C10.4758 9.96357 10.6667 10.2857 10.6667 10.2857C10.6667 10.2857 14 11.3598 14 13.4286V14.2159Z" fill="url(#paint0_linear_35_103)"/></g><path fill-rule="evenodd" clip-rule="evenodd" d="M15.0236 12.8622C15.0236 13.1037 14.9182 13.3353 14.7307 13.506C14.5432 13.6768 14.2888 13.7727 14.0236 13.7727H4.00297C3.87122 13.7728 3.74074 13.7493 3.61899 13.7035C3.49725 13.6576 3.38663 13.5903 3.29347 13.5055C3.20031 13.4207 3.12644 13.32 3.07608 13.2091C3.02572 13.0983 2.99987 12.9794 3 12.8595V11.9481C3 9.54587 7.00785 8.2987 7.00785 8.2987C7.00785 8.2987 7.2373 7.92556 7.00785 7.38636C6.1652 6.82071 6.062 5.93575 6.00589 3.73701C6.17923 1.53554 7.87656 1 9.01178 1C10.147 1 11.8443 1.53463 12.0177 3.73701C11.9616 5.93575 11.8584 6.82071 11.0157 7.38636C10.7863 7.92464 11.0157 8.2987 11.0157 8.2987C11.0157 8.2987 15.0236 9.54587 15.0236 11.9481V12.8622Z" fill="url(#paint1_linear_35_103)"/><defs><linearGradient id="paint0_linear_35_103" x1="9.25" y1="17.143" x2="8.923" y2="-3.57" gradientUnits="userSpaceOnUse"><stop stop-color="#FF6A45"/><stop offset="1" stop-color="#FF6A45" stop-opacity=".4"/></linearGradient><linearGradient id="paint1_linear_35_103" x1="9.312" y1="16.261" x2="8.946" y2="-7.791" gradientUnits="userSpaceOnUse"><stop stop-color="#FF6A45"/><stop offset="1" stop-color="#FF6A45" stop-opacity=".4"/></linearGradient><filter id="filter0_f_35_103" x="0" y="0" width="18" height="19" filterUnits="userSpaceOnUse" color-interpolation-filters="sRGB"><feFlood flood-opacity="0" result="BackgroundImageFix"/><feBlend in="SourceGraphic" in2="BackgroundImageFix" result="shape"/><feGaussianBlur stdDeviation="2" result="effect1_foregroundBlur_35_103"/></filter></defs></svg>