<svg width="85" height="85" viewBox="0 0 85 85" fill="none" xmlns="http://www.w3.org/2000/svg"><mask id="mask0_35_858" style="mask-type:luminance" maskUnits="userSpaceOnUse" x="0" y="0" width="85" height="85"><path d="M0.876953 0.858398H84.1408V84.1223H0.876953V0.858398Z" fill="#fff"/></mask><g mask="url(#mask0_35_858)"><path d="M42.5089 0.858398C19.5514 0.858398 0.876953 19.5328 0.876953 42.4903C0.876953 65.4473 19.5514 84.1223 42.5089 84.1223C65.4659 84.1223 84.1408 65.4473 84.1408 42.4903C84.1408 19.5328 65.4659 0.858398 42.5089 0.858398ZM54.5669 44.5867L37.6319 61.5217C37.0521 62.1015 36.2935 62.399 35.5355 62.399C34.777 62.399 34.0038 62.1015 33.424 61.5217C32.2644 60.3621 32.2644 58.474 33.424 57.3138L48.2627 42.4903L33.424 27.6511C32.2644 26.4915 32.2644 24.618 33.424 23.4437C34.5988 22.2836 36.4723 22.2836 37.6319 23.4437L54.5669 40.3788C55.727 41.5384 55.727 43.4271 54.5669 44.5867Z" fill="url(#paint0_linear_35_858)"/></g><defs><linearGradient id="paint0_linear_35_858" x1="44.59" y1="107.999" x2="44.45" y2="-25.468" gradientUnits="userSpaceOnUse"><stop stop-color="#FF6A45"/><stop offset="1" stop-color="#FF6A45" stop-opacity="0"/></linearGradient></defs></svg>